<svg width="400" height="400" xmlns="http://www.w3.org/2000/svg" fill="none">
 <g>
  <title>Layer 1</title>
  <path stroke="null" d="m285.45941,99.90639c-53.51929,-3.84636 -113.13386,-3.84636 -166.64922,0c-11.20545,0.80459 -19.69491,9.3804 -20.53875,19.8676c-2.7003,33.62814 -3.06138,84.00754 -0.5848,117.60035c0.82029,11.09555 10.56178,20.62117 23.74535,20.62117l41.313,0l0,50.96813l-41.23057,-0.02747c-37.82772,0 -71.77769,-28.03914 -74.70956,-67.80967c-2.6689,-36.20676 -2.30389,-89.20796 0.60836,-125.43827c2.91617,-36.31273 32.11314,-64.11639 67.73903,-66.67539c55.95269,-4.01905 118.0046,-4.01905 173.96514,0c35.62196,2.559 64.81893,30.36266 67.7351,66.67539c2.91224,36.23031 2.78665,89.23152 0.11775,125.43827c-2.93579,39.77053 -36.80727,67.92349 -74.63499,67.92349l-40.80276,-0.0314l-78.78748,50.96813l0,-51.02308l78.78748,-50.96813l40.81061,0c13.17966,0 22.92114,-9.52562 23.74143,-20.62117c2.47266,-33.59281 2.61003,-83.97221 -0.09027,-117.60035c-0.84385,-10.48721 -9.32937,-19.06301 -20.53483,-19.8676l-0.00002,0z" fill="#FE5000" id="svg_1"/>
 </g>

</svg>