<svg width="400" height="400" xmlns="http://www.w3.org/2000/svg" aria-hidden="true" focusable="false" data-prefix="fab" data-icon="whatsapp" class="svg-inline--fa fa-whatsapp fa-w-14" role="img">
 <g>
  <title>Layer 1</title>
  <path stroke="null" fill="#37af48" d="m306.61765,81.02968c-28.33861,-28.40625 -66.07834,-44.02968 -106.18527,-44.02968c-82.78394,0 -150.14733,67.3634 -150.14733,150.14733c0,26.44486 6.89866,52.28103 20.01964,75.07366l-21.30468,77.77902l79.60514,-20.89888c21.91339,11.9712 46.59978,18.26116 71.75959,18.26116l0.06763,0c82.7163,0 151.56764,-67.3634 151.56764,-150.14733c0,-40.10692 -17.04375,-77.77902 -45.38236,-106.18527l-0.00001,0.00001l0,-0.00001zm-106.18527,231.0375c-22.45447,0 -44.43548,-6.01942 -63.57589,-17.38192l-4.53147,-2.70536l-47.20849,12.37701l12.57991,-46.0587l-2.97589,-4.73438c-12.51228,-19.88438 -19.07277,-42.81228 -19.07277,-66.41652c0,-68.7837 56.00089,-124.7846 124.85224,-124.7846c33.34353,0 64.65804,12.98572 88.19465,36.58995c23.53661,23.60423 38.01027,54.91875 37.94263,88.26228c0,68.85135 -57.4212,124.85224 -126.20491,124.85224l-0.00001,-0.00001l0,0.00001zm68.44554,-93.4701c-3.71986,-1.89375 -22.18393,-10.9567 -25.63326,-12.17411c-3.44933,-1.28504 -5.95178,-1.89375 -8.45424,1.89375c-2.50245,3.7875 -9.67165,12.17411 -11.90358,14.7442c-2.16428,2.50245 -4.3962,2.84063 -8.11608,0.94688c-22.04866,-11.02432 -36.52233,-19.68147 -51.06361,-44.63839c-3.85513,-6.62813 3.85513,-6.15468 11.02432,-20.49308c1.21741,-2.50245 0.60871,-4.66674 -0.33817,-6.56049c-0.94688,-1.89375 -8.45424,-20.35781 -11.5654,-27.86518c-3.04353,-7.30447 -6.15468,-6.28995 -8.45424,-6.42522c-2.16428,-0.13527 -4.66674,-0.13527 -7.1692,-0.13527c-2.50245,0 -6.56049,0.94688 -10.00983,4.66674c-3.44933,3.7875 -13.12098,12.85045 -13.12098,31.31451c0,18.46406 13.45915,36.31942 15.28527,38.82188c1.89375,2.50245 26.44486,40.37745 64.11697,56.67724c23.80714,10.28036 33.14063,11.15959 45.0442,9.40111c7.23683,-1.08214 22.18393,-9.06295 25.29509,-17.85536c3.11116,-8.79241 3.11116,-16.29978 2.16428,-17.85536c-0.87924,-1.69085 -3.3817,-2.63772 -7.10156,-4.46384l0.00001,-0.00001l0.00002,0z" id="svg_1"/>
 </g>

</svg>